# xmcd CD database file
#
# Track frame offsets:
#	151
#	12963
#	26826
#	39081
#	53904
#	67219
#	91728
#	106351
#	138797
#	151451
#	165515
#	178001
#	191962
#	201823
#	215606
#	229318
#	253159
#
# Disc length: 3630 seconds
#
# Revision: 0
# Processed by: cddbd v1.5.1PL2 Copyright (c) Steve Scherf et al.
# Submitted via: CDex 1.51
#
DISCID=ef0e2c11
DTITLE=Charlie Parker - Reflective Recordings (Radio City)
DYEAR=1900
DGENRE=Jazz
TTITLE0=Chasin' the Bird
TTITLE1=Crazeology
TTITLE2=Yardbird Suite
TTITLE3=My Old Flame
TTITLE4=Be Bob Alula
TTITLE5=Rockers
TTITLE6=Bird of Paradise
TTITLE7=Street Beat
TTITLE8=Don't Blame Me
TTITLE9=Moose The Mooch
TTITLE10=Marmaduke
TTITLE11=Paker's Mood
TTITLE12=Theme
TTITLE13=BulueBird
TTITLE14=Relaxin 'in Camarillo
TTITLE15=Round Midnight
TTITLE16=Slow Boat to China
EXTD=
EXTT0=
EXTT1=
EXTT2=
EXTT3=
EXTT4=
EXTT5=
EXTT6=
EXTT7=
EXTT8=
EXTT9=
EXTT10=
EXTT11=
EXTT12=
EXTT13=
EXTT14=
EXTT15=
EXTT16=
PLAYORDER=
